<?xml version="1.0" encoding="utf-8"?>
<!-- Generator: Adobe Illustrator 22.1.0, SVG Export Plug-In . SVG Version: 6.00 Build 0)  -->
<svg version="1.1" id="Layer_1" xmlns="http://www.w3.org/2000/svg" xmlns:xlink="http://www.w3.org/1999/xlink" x="0px" y="0px"
	 viewBox="0 0 48 48" style="enable-background:new 0 0 48 48;" xml:space="preserve">
<style type="text/css">
	.st0{fill:#FFFFFF;}
</style>
<path class="st0" d="M24,0C10.7,0,0,10.7,0,24s10.7,24,24,24s24-10.7,24-24S37.3,0,24,0z M37.7,32.3c0,0.7-0.2,1.3-0.7,1.7
	c-0.5,0.5-1.1,0.7-1.7,0.7H12.7c-0.7,0-1.3-0.2-1.7-0.7c-0.5-0.5-0.7-1.1-0.7-1.7V20.2c0.5,0.5,1,1,1.5,1.4c3.7,2.5,6.2,4.3,7.6,5.3
	c0.6,0.5,1,0.8,1.4,1c0.5,0.3,0.9,0.6,1.4,0.8c0.5,0.2,1.1,0.4,1.7,0.4c0.6,0,1.2-0.2,1.7-0.4c0.5-0.2,1-0.4,1.4-0.8
	c0.3-0.3,0.9-0.6,1.4-1c1.7-1.2,4.3-3,7.6-5.3c0.6-0.4,1.1-0.8,1.5-1.4L37.7,32.3z M37,18c-0.5,0.7-1.1,1.4-1.8,1.9
	c-3.8,2.6-6.2,4.3-7.2,5c-0.1,0-0.3,0.3-0.6,0.5c-0.3,0.3-0.6,0.5-0.9,0.6s-0.5,0.3-0.8,0.5c-0.3,0.2-0.6,0.3-0.9,0.4
	c-0.2,0.1-0.5,0.1-0.8,0.1c-0.3,0-0.5-0.1-0.8-0.1c-0.3-0.1-0.6-0.3-0.9-0.4c-0.3-0.2-0.6-0.3-0.8-0.5s-0.5-0.3-0.9-0.6
	c-0.2-0.2-0.4-0.3-0.6-0.5c-0.9-0.6-2.2-1.6-4-2.8s-2.8-2-3.1-2.2c-0.7-0.5-1.3-1.1-1.8-1.7c-0.5-0.6-0.8-1.3-0.9-2.1
	c0-0.7,0.2-1.4,0.6-2c0.4-0.5,1.1-0.8,1.8-0.8h22.6c1.3,0,2.4,1,2.4,2.4c0,0,0,0.1,0,0.1C37.7,16.5,37.5,17.3,37,18L37,18z"/>
</svg>
