<?xml version="1.0" encoding="utf-8"?>
<!-- Generator: Adobe Illustrator 22.1.0, SVG Export Plug-In . SVG Version: 6.00 Build 0)  -->
<svg version="1.1" id="Layer_1" xmlns="http://www.w3.org/2000/svg" xmlns:xlink="http://www.w3.org/1999/xlink" x="0px" y="0px"
	 viewBox="0 0 48 48" style="enable-background:new 0 0 48 48;" xml:space="preserve">
<style type="text/css">
	.st0{fill:#FFFFFF;}
</style>
<path class="st0" d="M24,0C10.7,0,0,10.7,0,24c0,10.3,6.6,19.5,16.4,22.8c1.2,0.2,1.6-0.5,1.6-1.2c0-0.6,0-2.5,0-4.5
	c-6.7,1.5-8.1-2.8-8.1-2.8c-1.1-2.8-2.7-3.5-2.7-3.5c-2.2-1.5,0.2-1.5,0.2-1.5c1.5,0.2,2.9,1.1,3.7,2.5c2.1,3.7,5.6,2.6,7,2
	c0.1-1.2,0.6-2.4,1.5-3.2C14.3,34,8.7,31.9,8.7,22.7c0-2.4,0.9-4.7,2.5-6.4c-0.7-2.1-0.7-4.3,0.2-6.3c0,0,2-0.6,6.6,2.5
	c3.9-1.1,8.1-1.1,12,0c4.6-3.1,6.6-2.5,6.6-2.5c0.9,2,1,4.3,0.2,6.3c1.6,1.8,2.5,4.1,2.5,6.4c0,9.2-5.6,11.2-11,11.8
	c1.2,1.2,1.8,2.8,1.6,4.4c0,3.2,0,5.8,0,6.6c0,0.6,0.4,1.4,1.6,1.2C44.2,42.6,51,29,46.8,16.4C43.5,6.6,34.3,0,24,0z"/>
<path class="st0" d="M9.1,34.5c-0.1,0.1-0.3,0.2-0.4,0.1c-0.2-0.1-0.3-0.2-0.2-0.4C8.6,34,8.7,34,8.9,34.1C9,34.2,9.2,34.3,9.1,34.5
	z"/>
<path class="st0" d="M10.1,35.5c-0.1,0.1-0.3,0.1-0.5-0.1S9.4,35,9.5,34.9c0.2-0.1,0.4,0,0.5,0.1C10.2,35.2,10.2,35.4,10.1,35.5
	L10.1,35.5z"/>
<path class="st0" d="M11,36.9c-0.2,0.1-0.4,0-0.5-0.2s-0.2-0.5,0-0.6s0.4,0,0.5,0.2S11.2,36.8,11,36.9L11,36.9z"/>
<path class="st0" d="M12.3,38.3c-0.1,0.1-0.4,0.1-0.6-0.1s-0.3-0.5-0.1-0.6s0.4-0.1,0.6,0.1S12.4,38.1,12.3,38.3z"/>
<path class="st0" d="M14.1,39c-0.1,0.2-0.3,0.3-0.6,0.2s-0.4-0.3-0.4-0.5s0.3-0.3,0.6-0.2S14.1,38.8,14.1,39z"/>
<path class="st0" d="M16.1,39.2c0,0.2-0.2,0.4-0.5,0.4S15,39.4,15,39.2s0.2-0.4,0.5-0.4S16.1,39,16.1,39.2L16.1,39.2z"/>
<path class="st0" d="M17.9,38.9c0,0.2-0.2,0.4-0.4,0.4s-0.5-0.1-0.6-0.3s0.2-0.4,0.4-0.5C17.6,38.6,17.8,38.7,17.9,38.9z"/>
</svg>
