<?xml version="1.0" encoding="utf-8"?>
<!-- Generator: Adobe Illustrator 22.1.0, SVG Export Plug-In . SVG Version: 6.00 Build 0)  -->
<svg version="1.1" id="Layer_1" xmlns="http://www.w3.org/2000/svg" xmlns:xlink="http://www.w3.org/1999/xlink" x="0px" y="0px"
	 viewBox="0 0 48 48" style="enable-background:new 0 0 48 48;" xml:space="preserve">
<style type="text/css">
	.st0{fill:#FFFFFF;}
</style>
<path class="st0" d="M24,0C10.7,0,0,10.7,0,24s10.7,24,24,24s24-10.7,24-24S37.3,0,24,0z M17.7,35.5h-6V17.4h6V35.5z M14.7,15
	L14.7,15c-1.8,0.1-3.3-1.2-3.4-2.9c-0.1-1.7,1.2-3.2,2.9-3.3c0.2,0,0.3,0,0.5,0c1.7-0.1,3.2,1.2,3.4,2.9c0.1,1.7-1.2,3.2-2.9,3.4
	C15,15,14.9,15,14.7,15z M39.4,35.5h-6v-9.7c0-2.4-0.9-4.1-3-4.1c-1.4,0-2.6,0.9-3.1,2.2c-0.2,0.5-0.2,1-0.2,1.5v10.1h-6
	c0,0,0.1-16.4,0-18.1h6V20c1.1-1.9,3.2-3.1,5.4-3c4,0,6.9,2.6,6.9,8.1L39.4,35.5L39.4,35.5z"/>
</svg>
