<?xml version="1.0" encoding="utf-8"?>
<!-- Generator: Adobe Illustrator 22.1.0, SVG Export Plug-In . SVG Version: 6.00 Build 0)  -->
<svg version="1.1" id="Layer_1" xmlns="http://www.w3.org/2000/svg" xmlns:xlink="http://www.w3.org/1999/xlink" x="0px" y="0px"
	 viewBox="0 0 48 48" style="enable-background:new 0 0 48 48;" xml:space="preserve">
<style type="text/css">
	.st0{fill:#FFFFFF;}
</style>
<path class="st0" d="M24,0C10.7,0,0,10.7,0,24s10.7,24,24,24s24-10.7,24-24S37.3,0,24,0z M37.2,18.6c0,0.3,0,0.5,0,0.8
	c0,8.4-6.4,18.1-18.1,18.1v0c-3.4,0-6.8-1-9.7-2.8c0.5,0.1,1,0.1,1.5,0.1c2.9,0,5.6-1,7.9-2.7c-2.7,0-5.1-1.8-5.9-4.4
	c1,0.2,1.9,0.1,2.9-0.1c-3-0.6-5.1-3.2-5.1-6.2v-0.1c0.9,0.5,1.9,0.8,2.9,0.8c-2.8-1.9-3.7-5.6-2-8.5c3.2,4,8,6.4,13.1,6.6
	c-0.8-3.4,1.3-6.8,4.8-7.6c2.2-0.5,4.5,0.2,6.1,1.8c1.4-0.3,2.8-0.8,4-1.5c-0.5,1.5-1.5,2.7-2.8,3.5c1.3-0.1,2.5-0.5,3.6-1
	C39.6,16.6,38.5,17.7,37.2,18.6z"/>
</svg>
